<?xml version="1.0" encoding="utf-8"?>
<!-- Generator: Adobe Illustrator 25.0.1, SVG Export Plug-In . SVG Version: 6.00 Build 0)  -->
<svg version="1.1" id="Layer_1" xmlns="http://www.w3.org/2000/svg" xmlns:xlink="http://www.w3.org/1999/xlink" x="0px" y="0px"
	 viewBox="0 0 448 512" style="enable-background:new 0 0 448 512;" xml:space="preserve">
<path d="M420,124H28c-15.5,0-28-12.5-28-28v0c0-15.5,12.5-28,28-28h392c15.5,0,28,12.5,28,28v0C448,111.5,435.5,124,420,124z
	 M420,284H28c-15.5,0-28-12.5-28-28v0c0-15.5,12.5-28,28-28h392c15.5,0,28,12.5,28,28v0C448,271.5,435.5,284,420,284z M420,444H28
	c-15.5,0-28-12.5-28-28v0c0-15.5,12.5-28,28-28h392c15.5,0,28,12.5,28,28v0C448,431.5,435.5,444,420,444z"/>
</svg>
