<?xml version="1.0" encoding="utf-8"?>
<!-- Generator: Adobe Illustrator 25.0.1, SVG Export Plug-In . SVG Version: 6.00 Build 0)  -->
<svg version="1.1" id="Layer_1" xmlns="http://www.w3.org/2000/svg" xmlns:xlink="http://www.w3.org/1999/xlink" x="0px" y="0px"
	 viewBox="0 0 320 512" style="enable-background:new 0 0 320 512;" xml:space="preserve">
<path d="M207.6,256l111.1-111.1c2.3-2.3,1.2-7.5-1-13.2c-5.9-15.3-18.1-27.6-33.5-33.5c-5.7-2.2-10.9-3.2-13.2-1L160,208.4
	L48.9,97.3c-2.1-2.1-6.9-1.3-12.3,0.7c-16.2,6-29.2,18.8-34.9,35.1c-1.8,5.2-2.5,9.7-0.4,11.8L112.4,256L1.3,367.1
	c-2.1,2.1-1.4,6.7,0.4,11.9c5.8,16.4,18.8,29.4,35.2,35.2c5.2,1.9,9.9,2.6,12,0.5L160,303.6l111.1,111.1c2.2,2.2,7.4,1.2,13.2-1
	c15.3-5.9,27.6-18.1,33.5-33.5c2.2-5.7,3.2-10.9,1-13.2L207.6,256z"/>
</svg>
