<?xml version="1.0" encoding="UTF-8"?>
<svg width="323px" height="124px" viewBox="0 0 323 124" version="1.1" xmlns="http://www.w3.org/2000/svg" xmlns:xlink="http://www.w3.org/1999/xlink">
    <!-- Generator: Sketch 63.1 (92452) - https://sketch.com -->
    <g id="Page-1" stroke="none" stroke-width="1" fill="none" fill-rule="evenodd">
        <g id="cygni_logotype_white" transform="translate(-38.000000, -138.000000)" fill="#FFFFFF">
            <path d="M351.002319,138.0004 C345.479379,138.0004 341.004238,142.4764 341.004238,148.0004 C341.004238,153.5244 345.479379,158.0004 351.002319,158.0004 C356.523259,158.0004 361.0004,153.5244 361.0004,148.0004 C361.0004,142.4764 356.523259,138.0004 351.002319,138.0004 L351.002319,138.0004 Z M245.804512,200.0004 C245.804512,188.9724 236.832234,180.0004 225.80835,180.0004 C214.782467,180.0004 205.812188,188.9724 205.812188,200.0004 C205.812188,211.0284 214.782467,220.0004 225.80835,220.0004 C236.832234,220.0004 245.804512,211.0284 245.804512,200.0004 L245.804512,200.0004 Z M251.80336,170.0004 L257.802209,170.0004 L257.802209,200.0004 C257.802209,217.6444 243.448964,232.0004 225.80835,232.0004 C208.165737,232.0004 193.814491,217.6444 193.814491,200.0004 C193.814491,182.3564 208.165737,168.0004 225.80835,168.0004 C233.612852,168.0004 240.765479,170.8184 246.324412,175.4784 L251.80336,170.0004 Z M171.974684,200.0004 C171.974684,211.0284 163.002406,220.0004 151.978522,220.0004 C140.952638,220.0004 131.98236,211.0284 131.98236,200.0004 L131.98236,185.0004 C131.98236,174.4684 128.531023,164.4744 122.182241,156.2864 L113.59189,164.8764 C117.729096,170.7304 119.984663,177.6884 119.984663,185.0004 L119.984663,200.0004 C119.984663,205.6664 121.480376,210.9844 124.073878,215.6064 C126.963324,220.7544 131.228505,225.0204 136.375517,227.9104 C140.99663,230.5044 146.313609,232.0004 151.978522,232.0004 C159.54307,232.0004 166.491736,229.3484 171.974684,224.9404 L171.974684,230.0004 C171.974684,241.0284 163.002406,250.0004 151.978522,250.0004 C146.637547,250.0004 141.614511,247.9204 137.837236,244.1424 L129.354864,252.6264 C135.397705,258.6724 143.432162,262.0004 151.978522,262.0004 C169.619136,262.0004 183.972381,247.6444 183.972381,230.0004 L183.972381,170.0004 L171.974684,170.0004 L171.974684,200.0004 Z M345.003471,230.0004 L357.001168,230.0004 L357.001168,170.0004 L345.003471,170.0004 L345.003471,230.0004 Z M301.40184,168.0004 C293.727313,168.0004 286.688664,170.7904 281.209716,175.4104 L275.798754,170.0004 L269.799906,170.0004 L269.799906,199.9884 L269.799906,200.0004 L269.799906,230.0004 L281.797603,230.0004 L281.797603,200.0004 C281.797603,188.9724 290.591915,180.0004 301.40184,180.0004 C312.213765,180.0004 321.008077,188.9724 321.008077,200.0004 L321.008077,230.0004 L333.005774,230.0004 L333.005774,200.0004 C333.005774,182.3564 318.828495,168.0004 301.40184,168.0004 L301.40184,168.0004 Z M225.80835,250.0004 C220.467375,250.0004 215.44434,247.9204 211.667065,244.1424 L203.184693,252.6264 C209.227533,258.6724 217.261991,262.0004 225.80835,262.0004 C243.448964,262.0004 257.802209,247.6444 257.802209,230.0004 L245.804512,230.0004 C245.804512,241.0284 236.832234,250.0004 225.80835,250.0004 L225.80835,250.0004 Z M105.137513,213.6344 L113.693871,222.1944 C105.523439,228.4864 95.4053811,232.0004 84.9913801,232.0004 C59.0803537,232.0004 38.0004,210.9164 38.0004,185.0004 C38.0004,159.0844 59.0803537,138.0004 84.9913801,138.0004 C95.4293765,138.0004 105.525439,141.5144 113.691871,147.8084 L105.111518,156.3904 C99.2606411,152.2844 92.2399887,150.0004 84.9913801,150.0004 C65.695084,150.0004 49.998097,165.7024 49.998097,185.0004 C49.998097,204.2984 65.695084,220.0004 84.9913801,220.0004 C92.3439687,220.0004 99.2966342,217.7764 105.137513,213.6344 L105.137513,213.6344 Z"></path>
        </g>
    </g>
</svg>