<svg id="cygni-logo" xmlns="http://www.w3.org/2000/svg" viewBox="0 0 793.7 226.77"><defs><style>.cls-1,.cls-2{fill:#fff;}.cls-2{fill-rule:evenodd;}</style></defs><path class="cls-1" d="M411.15,101h7.63a14.66,14.66,0,0,1,3.62.43,8.34,8.34,0,0,1,3,1.4,6.9,6.9,0,0,1,2,2.44,8,8,0,0,1,.75,3.6V109a8.18,8.18,0,0,1-.75,3.66,6.89,6.89,0,0,1-2,2.46,8.34,8.34,0,0,1-3,1.4,15.15,15.15,0,0,1-3.62.43h-4.36v10.89h-3.27ZM419,114.3a6.35,6.35,0,0,0,4.4-1.37,5.12,5.12,0,0,0,1.5-4v-.15c0-1.9-.53-3.25-1.58-4a7.1,7.1,0,0,0-4.32-1.18h-4.58V114.3Z"/><path class="cls-1" d="M437,128.16a9.26,9.26,0,0,1-2.56-.34,5.6,5.6,0,0,1-2.08-1A4.9,4.9,0,0,1,431,125a6.07,6.07,0,0,1-.51-2.59,4.83,4.83,0,0,1,.83-2.86,6.09,6.09,0,0,1,2.19-1.88,11.17,11.17,0,0,1,3.16-1,21,21,0,0,1,3.66-.32h2.82v-1.42a4.82,4.82,0,0,0-1-3.38,4.35,4.35,0,0,0-3.24-1q-4.05,0-4.5,3.49h-3.12a6.73,6.73,0,0,1,.84-2.86,6,6,0,0,1,1.77-1.89,7,7,0,0,1,2.4-1,11.46,11.46,0,0,1,2.76-.32,11.11,11.11,0,0,1,2.71.32,5.52,5.52,0,0,1,2.29,1.12,5.83,5.83,0,0,1,1.58,2.16,8.45,8.45,0,0,1,.6,3.42v13h-3.12v-2.48a7.3,7.3,0,0,1-2.52,2.11A8.1,8.1,0,0,1,437,128.16Zm.3-2.48a7.82,7.82,0,0,0,2.31-.32,5.48,5.48,0,0,0,1.84-.92,4.28,4.28,0,0,0,1.67-3.49v-2.44h-2.7a17.86,17.86,0,0,0-2.73.2,8,8,0,0,0-2.18.66,3.63,3.63,0,0,0-1.42,1.18,3.13,3.13,0,0,0-.51,1.83,3.37,3.37,0,0,0,.83,2.42A3.84,3.84,0,0,0,437.3,125.68Z"/><path class="cls-1" d="M451.88,108.17H455v3.54a9.58,9.58,0,0,1,1-1.53,6.15,6.15,0,0,1,3.1-2,8.9,8.9,0,0,1,2.33-.33v2.93a14,14,0,0,0-2.67.37,5,5,0,0,0-2.05,1,4.55,4.55,0,0,0-1.29,1.89,8.28,8.28,0,0,0-.46,3v10.78h-3.11Z"/><path class="cls-1" d="M471.68,128.09a5.17,5.17,0,0,1-4-1.43,5.38,5.38,0,0,1-1.29-3.76V110.8h-2.82v-2.63h2.82V103.7h3.12v4.47h4.58v2.63H469.5v11.8c0,1.91.81,2.86,2.44,2.86a6.29,6.29,0,0,0,1.31-.12,6.49,6.49,0,0,0,1.09-.3v2.63a5.39,5.39,0,0,1-1.09.3A8.27,8.27,0,0,1,471.68,128.09Z"/><path class="cls-1" d="M495.72,128.16a9.82,9.82,0,0,1-3.87-.75,9,9,0,0,1-3-2.08,9.27,9.27,0,0,1-2-3.18,10.83,10.83,0,0,1-.72-4v-.3a11.07,11.07,0,0,1,.73-4.06,9.64,9.64,0,0,1,2-3.17,9,9,0,0,1,3.05-2.07,10.57,10.57,0,0,1,7.72,0,8.91,8.91,0,0,1,3.06,2.05,9.55,9.55,0,0,1,2,3.15,10.86,10.86,0,0,1,.73,4.06v.3a11,11,0,0,1-.73,4.08,9.13,9.13,0,0,1-5.09,5.22A10,10,0,0,1,495.72,128.16Zm0-2.63a6.62,6.62,0,0,0,2.67-.52,5.48,5.48,0,0,0,2-1.5,6.64,6.64,0,0,0,1.28-2.33,9.6,9.6,0,0,0,.45-3v-.26a9.85,9.85,0,0,0-.45-3.07,6.8,6.8,0,0,0-1.29-2.36,5.88,5.88,0,0,0-2-1.49,6.46,6.46,0,0,0-2.65-.52,6.59,6.59,0,0,0-2.67.52,5.61,5.61,0,0,0-2,1.49,7.13,7.13,0,0,0-1.28,2.34,9.72,9.72,0,0,0-.45,3.05v.3a8,8,0,0,0,1.71,5.36A5.85,5.85,0,0,0,495.76,125.53Z"/><path class="cls-1" d="M510.45,110.8h-2.82v-2.63h2.82V105a6.83,6.83,0,0,1,1.46-4.66,5.59,5.59,0,0,1,4.4-1.65,7.08,7.08,0,0,1,1.24.09c.32.07.69.16,1.09.29v2.66a5.19,5.19,0,0,0-1-.3,6.75,6.75,0,0,0-1.22-.11,2.52,2.52,0,0,0-2.2.93,4.22,4.22,0,0,0-.65,2.43v3.51h4.81v2.63h-4.81v17h-3.12Z"/><path class="cls-1" d="M537.76,101h7.93l8.72,26.86h-6.35l-1.84-6h-9.73l-1.85,6h-5.71Zm0,16.57h7.1l-3.53-11.61Z"/><path class="cls-1" d="M564.51,128.24a11.9,11.9,0,0,1-4-.66,8.72,8.72,0,0,1-5.33-5.07,11,11,0,0,1-.77-4.27v-.3a10.89,10.89,0,0,1,.79-4.26,9.11,9.11,0,0,1,5.41-5.26,11.11,11.11,0,0,1,3.94-.7,13.35,13.35,0,0,1,3.29.4,8.4,8.4,0,0,1,2.87,1.29,7.35,7.35,0,0,1,2.07,2.37,8.76,8.76,0,0,1,1,3.57h-5.14a4,4,0,0,0-1.26-2.52,4.16,4.16,0,0,0-2.73-.82,4.26,4.26,0,0,0-3.42,1.51,6.58,6.58,0,0,0-1.27,4.33v.3a6.8,6.8,0,0,0,1.26,4.46,4.36,4.36,0,0,0,3.55,1.49,4.44,4.44,0,0,0,2.83-.93,3.86,3.86,0,0,0,1.37-2.82h4.93a8.91,8.91,0,0,1-.79,3.21,7.21,7.21,0,0,1-1.88,2.46,8.68,8.68,0,0,1-2.89,1.64A12,12,0,0,1,564.51,128.24Z"/><path class="cls-1" d="M584.8,128.24a11.86,11.86,0,0,1-4-.66,8.72,8.72,0,0,1-5.33-5.07,11,11,0,0,1-.77-4.27v-.3a11.08,11.08,0,0,1,.78-4.26,9.73,9.73,0,0,1,2.18-3.25,9.56,9.56,0,0,1,3.23-2,11.2,11.2,0,0,1,4-.7,13.35,13.35,0,0,1,3.29.4,8.4,8.4,0,0,1,2.87,1.29,7.35,7.35,0,0,1,2.07,2.37,8.76,8.76,0,0,1,1,3.57h-5.14a4,4,0,0,0-1.26-2.52A4.17,4.17,0,0,0,585,112a4.25,4.25,0,0,0-3.42,1.51,6.58,6.58,0,0,0-1.27,4.33v.3a6.8,6.8,0,0,0,1.25,4.46,4.39,4.39,0,0,0,3.56,1.49,4.44,4.44,0,0,0,2.83-.93,3.86,3.86,0,0,0,1.37-2.82h4.93a8.91,8.91,0,0,1-.79,3.21,7.21,7.21,0,0,1-1.88,2.46,8.63,8.63,0,0,1-2.9,1.64A11.9,11.9,0,0,1,584.8,128.24Z"/><path class="cls-1" d="M605.24,128.24a12,12,0,0,1-4.09-.68,9.23,9.23,0,0,1-5.4-5.11,10.9,10.9,0,0,1-.77-4.21v-.3a11,11,0,0,1,.77-4.2,9.32,9.32,0,0,1,5.36-5.28,10.63,10.63,0,0,1,4-.74,11.24,11.24,0,0,1,3.64.59,8.34,8.34,0,0,1,3,1.78,8.62,8.62,0,0,1,2.1,3.1,11.69,11.69,0,0,1,.79,4.53v1.5H600.51a5.71,5.71,0,0,0,1.37,3.81,5.53,5.53,0,0,0,6.39.59,3.39,3.39,0,0,0,1.22-2h5.14a7,7,0,0,1-2.91,4.91A11,11,0,0,1,605.24,128.24Zm4.13-12.36a5,5,0,0,0-1.24-3.33,4.69,4.69,0,0,0-6.06.08,5.4,5.4,0,0,0-1.49,3.25Z"/><path class="cls-1" d="M616.81,108.17h5.45v3.12a6.76,6.76,0,0,1,2.33-2.51,7.12,7.12,0,0,1,4.06-1.06,7.59,7.59,0,0,1,2.67.45,5.86,5.86,0,0,1,2.1,1.36,6.4,6.4,0,0,1,1.35,2.38,10.56,10.56,0,0,1,.49,3.4v12.51h-5.45V116.1a4.48,4.48,0,0,0-.82-3,3.29,3.29,0,0,0-2.63-1,4.12,4.12,0,0,0-2.93,1.07,4.18,4.18,0,0,0-1.17,3.25v11.34h-5.45Z"/><path class="cls-1" d="M645.67,128.2a6.57,6.57,0,0,1-4.74-1.56,6.2,6.2,0,0,1-1.61-4.64V112H636.8v-3.87h2.52v-4.24h5.41v4.24h4.13V112h-4.13v9.47a2.49,2.49,0,0,0,.54,1.75,2.14,2.14,0,0,0,1.64.58,6.4,6.4,0,0,0,1.11-.09,5,5,0,0,0,1-.28v4.2a10.18,10.18,0,0,1-1.39.36A9.82,9.82,0,0,1,645.67,128.2Z"/><path class="cls-1" d="M657.77,128.24a8,8,0,0,1-2.65-.43,5.63,5.63,0,0,1-2.13-1.34,6.18,6.18,0,0,1-1.41-2.31,10,10,0,0,1-.5-3.32V108.17h5.41v11.91a4.4,4.4,0,0,0,.86,3,3.19,3.19,0,0,0,2.56,1,3.89,3.89,0,0,0,4.09-4.32V108.17h5.41v19.65H664v-3.08a6.31,6.31,0,0,1-2.27,2.5A7.17,7.17,0,0,1,657.77,128.24Z"/><path class="cls-1" d="M672.79,108.17h5.45v3.76a7.2,7.2,0,0,1,2.44-3,7.11,7.11,0,0,1,3.91-1.06V113a8,8,0,0,0-4.7,1.09c-1.1.75-1.65,2.06-1.65,3.94v9.84h-5.45Z"/><path class="cls-1" d="M695.41,128.24a12,12,0,0,1-4.09-.68,8.75,8.75,0,0,1-3.23-2,8.65,8.65,0,0,1-2.16-3.12,10.72,10.72,0,0,1-.77-4.21v-.3a10.84,10.84,0,0,1,.77-4.2,9.4,9.4,0,0,1,2.16-3.24,9.53,9.53,0,0,1,3.19-2,10.63,10.63,0,0,1,4-.74,11.35,11.35,0,0,1,3.65.59,8.39,8.39,0,0,1,3,1.78,8.5,8.5,0,0,1,2.1,3.1,11.69,11.69,0,0,1,.79,4.53v1.5H690.68a5.71,5.71,0,0,0,1.37,3.81,5.53,5.53,0,0,0,6.39.59,3.35,3.35,0,0,0,1.22-2h5.14a7,7,0,0,1-2.91,4.91A11,11,0,0,1,695.41,128.24Zm4.14-12.36a5.07,5.07,0,0,0-1.24-3.33,4.2,4.2,0,0,0-3-1.07,4.13,4.13,0,0,0-3,1.15,5.4,5.4,0,0,0-1.49,3.25Z"/><path id="SVGID" class="cls-2" d="M370.72,56.89A9.08,9.08,0,1,0,379.8,66a9.08,9.08,0,0,0-9.08-9.08ZM275.18,113.2A18.16,18.16,0,1,0,257,131.37a18.18,18.18,0,0,0,18.16-18.17ZM280.63,86h5.44V113.2a29.11,29.11,0,1,1-10.42-22.27l5-5ZM208.12,113.2a18.16,18.16,0,1,1-36.32,0V99.58a42.36,42.36,0,0,0-8.9-26.08l-7.8,7.8a31.6,31.6,0,0,1,5.8,18.28V113.2a28.78,28.78,0,0,0,3.72,14.17,29.19,29.19,0,0,0,11.17,11.18,28.92,28.92,0,0,0,32.33-2.7v4.6a18.16,18.16,0,0,1-31,12.84L169.41,161A29.06,29.06,0,0,0,219,140.45V86h-10.9V113.2Zm157.16,27.25h10.89V86H365.28v54.5ZM325.67,84.14a28.35,28.35,0,0,0-18.34,6.73L302.42,86H297v27.24h0v27.25h10.9V113.2a17.81,17.81,0,1,1,35.61,0v27.25h10.9V113.2a28.92,28.92,0,0,0-28.71-29.06ZM257,158.61a18.06,18.06,0,0,1-12.85-5.32l-7.7,7.71a29.06,29.06,0,0,0,49.6-20.55H275.18A18.19,18.19,0,0,1,257,158.61Zm-109.6-33,7.77,7.78a42.69,42.69,0,1,1,0-67.56l-7.8,7.79a31.78,31.78,0,1,0-18.27,57.78,31.39,31.39,0,0,0,18.3-5.79Z"/></svg>