<?xml version="1.0" encoding="utf-8"?>
<!-- Generator: Adobe Illustrator 25.0.1, SVG Export Plug-In . SVG Version: 6.00 Build 0)  -->
<svg version="1.1" id="Layer_1" xmlns="http://www.w3.org/2000/svg" xmlns:xlink="http://www.w3.org/1999/xlink" x="0px" y="0px"
	 viewBox="0 0 160 60" style="enable-background:new 0 0 160 60;" xml:space="preserve">
<style type="text/css">
	.st0{fill:#DC4CDE;}
	.st1{fill:#B17FDB;}
	.st2{fill:#6ED1EF;}
	.st3{fill:#E68746;}
	.st4{fill:#D3354F;}
	.st5{fill:#61B158;}
	.st6{fill:#4866D0;}
	.st7{fill:#F9DF50;}
	.st8{fill:#17160C;}
	.st9{fill:#D9C146;}
	.st10{fill:#FEFEFE;}
</style>
<path class="st0" d="M10.32,29.56c1.29-0.8,2.42-1.71,3.12-3.06c0.61-1.18,0.54-2.65-1.37-3.1c-1.4-0.33-2.82-0.42-4.24-0.04
	c-1.3,0.35-2.5,0.92-3.61,1.67c-0.66,0.44-1.37,0.62-2.13,0.3c-0.73-0.31-1.06-1.03-0.87-1.8c0.19-0.76,0.67-1.32,1.24-1.84
	c1.38-1.24,3.06-1.82,4.83-2.21c1.15-0.26,2.32-0.35,3.5-0.28c1.65,0.1,3.21,0.51,4.55,1.52c1.27,0.96,1.93,2.28,2.15,3.85
	c0.25,1.78-0.32,3.33-1.31,4.76c-1.03,1.49-2.41,2.61-3.87,3.65c-0.49,0.35-0.97,0.7-1.47,1.05c-0.14,0.1-0.19,0.19-0.19,0.37
	c0.04,1.22,0.09,2.44,0.1,3.66c0,0.87-0.04,1.74-0.09,2.61c-0.01,0.19-0.09,0.38-0.18,0.56c-0.31,0.68-0.74,0.93-1.48,0.84
	c-0.93-0.12-1.59-0.64-1.98-1.48c-0.1-0.21-0.11-0.47-0.12-0.71c-0.02-1.1,0.02-2.2-0.03-3.29c-0.09-1.86-0.21-3.72-0.38-5.58
	c-0.15-1.61-0.39-3.22-0.59-4.83c-0.12-0.94,0.83-2.02,1.72-1.9c0.6,0.08,1.03,0.47,1.42,0.9c0.66,0.73,1,1.59,1.06,2.57
	C10.14,28.35,10.25,28.94,10.32,29.56z"/>
<path class="st1" d="M34.87,31.83c0,0.36-0.4,0.81-0.91,1.17c-0.22,0.16-0.23,0.28-0.14,0.5c0.57,1.28,1.17,2.56,1.69,3.87
	c0.35,0.9,0.47,1.86,0.22,2.81c-0.22,0.84-1.05,1.15-1.8,0.7c-0.67-0.4-1.2-0.95-1.54-1.64c-0.74-1.51-1.44-3.03-2.15-4.55
	c-0.12-0.26-0.21-0.4-0.56-0.34c-1.38,0.22-2.76,0.39-4.15,0.56c-0.59,0.07-1.18,0.1-1.77,0.12c-0.24,0.01-0.34,0.09-0.4,0.32
	c-0.46,1.7-0.93,3.39-1.4,5.09c-0.17,0.62-0.42,1.2-0.82,1.72c-0.41,0.53-1.15,0.77-1.85,0.59c-0.57-0.15-1.13-0.75-1.16-1.39
	c-0.02-0.55,0.03-1.12,0.13-1.67c0.68-4.01,1.93-7.85,3.43-11.62c1-2.52,2.15-4.97,3.52-7.32c0.29-0.49,0.69-0.78,1.27-0.78
	c0.1,0,0.2-0.08,0.31-0.11c0.33-0.09,0.67-0.22,1-0.23c0.42-0.01,0.76,0.22,1.01,0.57c0.66,0.9,0.99,1.94,1.32,2.99
	c0.63,1.99,1.33,3.96,1.98,5.95c0.15,0.46,0.31,0.8,0.89,0.69c0.18-0.03,0.39,0.03,0.58,0.07C34.37,30.06,34.86,30.67,34.87,31.83z
	 M28.58,30.76c-0.59-1.74-1.17-3.43-1.75-5.11c-0.02-0.01-0.04-0.01-0.06-0.02c-0.7,1.84-1.41,3.68-2.11,5.51
	c0.03,0.03,0.06,0.06,0.09,0.09C26.02,31.08,27.3,30.92,28.58,30.76z"/>
<path class="st2" d="M41.76,24.53c0,0.98-0.05,1.97,0.01,2.95c0.08,1.48,0.23,2.97,0.37,4.45c0.15,1.6,0.43,3.19,0.76,4.76
	c0.13,0.61,0.08,1.22-0.25,1.79c-0.49,0.86-1.38,1.07-2.12,0.41c-0.44-0.39-0.84-0.83-1.19-1.3c-0.18-0.24-0.23-0.59-0.29-0.9
	c-0.2-0.99-0.41-1.98-0.55-2.98c-0.16-1.16-0.28-2.32-0.36-3.49c-0.09-1.33-0.15-2.65-0.17-3.98c-0.02-0.99-0.08-1.99,0.16-2.97
	c0.13-0.53,0.34-1.02,0.69-1.43c0.38-0.45,0.89-0.57,1.46-0.46c0.64,0.12,1.1,0.47,1.29,1.11c0.07,0.25,0.1,0.51,0.11,0.77
	c0.02,0.42,0,0.84,0,1.27C41.72,24.53,41.74,24.53,41.76,24.53z"/>
<path class="st3" d="M49.43,30.79c-0.02,0.3-0.05,0.61-0.06,0.91c-0.04,1.72-0.09,3.45-0.12,5.18c-0.01,0.73,0.04,1.46,0.03,2.19
	c0,0.31-0.01,0.67-0.16,0.92c-0.26,0.45-0.75,0.52-1.24,0.47c-0.99-0.1-1.5-0.77-1.88-1.59c-0.28-0.59-0.4-1.23-0.42-1.88
	c-0.03-1.15-0.07-2.31-0.04-3.46c0.07-2.14,0.18-4.27,0.29-6.41c0.03-0.61,0.07-1.24,0.38-1.8c0.26-0.48,0.61-0.92,1.19-0.99
	c0.92-0.11,1.84,0.28,2.13,1.33c0.05,0.18,0.16,0.37,0.3,0.48c1.9,1.43,3.52,3.12,4.98,4.98c0.67,0.85,1.29,1.73,1.94,2.59
	c0.05,0.07,0.11,0.13,0.22,0.26c0.1-0.73,0.21-1.37,0.29-2.02c0.15-1.28,0.27-2.55,0.41-3.83c0.1-0.97,0.21-1.94,0.31-2.91
	c0.04-0.36,0.09-0.73,0.1-1.09c0.01-0.69,0.44-1.09,0.96-1.42c0.52-0.33,1.08-0.37,1.65-0.21c0.72,0.19,1.14,0.71,1.13,1.46
	c-0.02,0.8-0.1,1.59-0.17,2.38c-0.06,0.71-0.12,1.42-0.2,2.13c-0.2,1.76-0.38,3.52-0.62,5.27c-0.19,1.35-0.44,2.7-0.69,4.05
	c-0.11,0.6-0.35,1.15-0.89,1.51c-0.78,0.54-1.56,0.37-2.35,0.02c-0.9-0.4-1.48-1.12-2.03-1.89c-1.34-1.9-2.73-3.77-4.26-5.53
	c-0.34-0.39-0.71-0.76-1.06-1.15C49.5,30.77,49.47,30.78,49.43,30.79z"/>
<path class="st4" d="M81.48,22.34c-0.28,0.36-0.61,0.69-0.83,1.09c-0.3,0.54-0.45,1.13-0.15,1.75c-2.99-0.09-4.69,0.1-6.2,0.35
	c0.11,0.12,0.21,0.22,0.31,0.33c0.38,0.42,0.5,0.93,0.53,1.48c0.12,1.95,0.28,3.89,0.34,5.84c0.06,1.71,0.01,3.43,0.01,5.15
	c0,1.28-1.31,2.16-2.62,1.71c-0.37-0.13-0.57-0.44-0.73-0.78c-0.24-0.54-0.22-1.12-0.23-1.69c-0.04-1.91-0.05-3.83-0.12-5.74
	c-0.06-1.61-0.17-3.22-0.26-4.83c-0.01-0.28,0-0.57,0-0.89c-0.2,0.05-0.44,0.08-0.67,0.16c-1.75,0.56-3.5,1.12-5.24,1.7
	c-0.53,0.17-1.05,0.35-1.62,0.19c-0.69-0.19-1.36-0.96-1.29-1.66c0.04-0.39,0.32-0.77,0.55-1.11c0.29-0.42,0.74-0.67,1.21-0.88
	c2.03-0.94,4.12-1.71,6.3-2.22c1.84-0.43,3.71-0.68,5.6-0.73c1.37-0.04,2.74,0.03,4.1,0.19C80.91,21.79,81.22,22.02,81.48,22.34z"/>
<path class="st5" d="M81.48,22.34c0.84-0.75,1.77-1.33,2.85-1.65c1.02-0.31,2.06-0.49,3.13-0.54c1.39-0.07,2.74,0.1,4.04,0.59
	c0.94,0.36,1.73,0.95,2.34,1.75c0.49,0.63,0.67,1.39,0.67,2.19c0,1.34-0.48,2.53-1.21,3.63c-0.05,0.07-0.09,0.14-0.12,0.19
	c0.59,0.18,1.2,0.31,1.76,0.55c1.87,0.82,2.96,2.28,3.17,4.31c0.32,3.02-1,5.26-3.46,6.9c-1.51,1.01-3.21,1.47-5.03,1.52
	c-0.49,0.01-0.95-0.09-1.37-0.36c-0.22-0.14-0.48-0.21-0.7-0.35c-0.77-0.49-1.33-1.14-1.5-2.08c-0.47-2.57-0.96-5.14-1.42-7.71
	c-0.23-1.33-0.42-2.67-0.59-4.01c-0.09-0.71-0.27-1.42-0.07-2.18c-0.16,0.11-0.32,0.23-0.49,0.34c-0.22,0.15-0.42,0.32-0.65,0.44
	c-0.78,0.41-1.9,0.16-2.34-0.7c-0.29-0.61-0.15-1.2,0.15-1.75C80.87,23.03,81.2,22.7,81.48,22.34z M89.61,38.3
	c0.6-0.16,1.18-0.27,1.73-0.46c1.23-0.44,2.26-1.14,2.91-2.31c0.24-0.44,0.38-0.92,0.26-1.43c-0.16-0.72-0.68-1.1-1.34-1.32
	c-1.52-0.52-3.02-0.18-4.53,0.07C88.97,34.65,89.28,36.43,89.61,38.3z M84.97,24.53c1.2-0.02,1.84,0.47,2.13,1.56
	c0.09,0.33,0.18,0.65,0.26,0.98c0.13,0.51,0.26,1.02,0.41,1.6c0.4-0.28,0.78-0.5,1.12-0.77c0.72-0.57,1.28-1.27,1.52-2.18
	c0.22-0.86-0.05-1.33-0.89-1.62c-0.8-0.27-1.62-0.29-2.45-0.21C86.36,23.96,85.68,24.15,84.97,24.53z"/>
<path class="st6" d="M105.56,39.49c-1.67,0-3.12-0.57-4.29-1.75c-0.69-0.7-1.13-1.59-1.42-2.53c-0.47-1.51-0.56-3.05-0.36-4.62
	c0.18-1.41,0.6-2.75,1.27-3.99c0.7-1.29,1.61-2.41,2.97-3.06c0.49-0.23,1.05-0.33,1.58-0.45c0.29-0.07,0.55,0.06,0.78,0.24
	c0.08,0.06,0.23,0.11,0.31,0.08c0.98-0.36,1.99-0.41,2.99-0.18c0.69,0.16,1.4,0.33,2.03,0.63c1.46,0.69,2.41,1.88,2.97,3.38
	c0.47,1.25,0.5,2.54,0.36,3.85c-0.13,1.16-0.45,2.24-1.05,3.23c-1.31,2.15-3.05,3.81-5.45,4.7
	C107.39,39.34,106.49,39.49,105.56,39.49z M111.13,29.89c-0.04-0.29-0.05-0.58-0.11-0.86c-0.13-0.63-0.43-1.15-1-1.49
	c-1.06-0.63-2.17-0.68-3.29-0.19c-0.51,0.22-1,0.45-1.54,0.11c-0.04-0.03-0.17,0.02-0.21,0.07c-0.31,0.4-0.66,0.79-0.91,1.23
	c-0.37,0.65-0.56,1.37-0.64,2.11c-0.11,1.02-0.15,2.04,0.17,3.03c0.22,0.69,0.61,1.25,1.36,1.45c0.87,0.23,1.71,0.07,2.52-0.28
	c0.95-0.4,1.71-1.05,2.34-1.84C110.59,32.26,111.12,31.18,111.13,29.89z"/>
<path class="st7" d="M124.78,26.08c-0.47,0.13-0.93,0.23-1.37,0.37c-1.65,0.53-3.3,1.08-4.94,1.62c-0.98,0.32-1.74,0.08-2.28-0.7
	c-0.37-0.53-0.38-1.05-0.03-1.59c0.34-0.52,0.77-0.93,1.35-1.2c2.52-1.18,5.12-2.09,7.86-2.59c1.37-0.25,2.75-0.39,4.14-0.44
	c1.37-0.05,2.72,0.03,4.07,0.18c0.69,0.07,1.09,0.5,1.37,1.07c0.35,0.7,0.17,1.36-0.24,1.96c-0.24,0.36-0.64,0.42-1.05,0.42
	c-1-0.01-1.99-0.04-2.99,0.01c-1.06,0.05-2.12,0.19-3.21,0.29c0.21,0.27,0.4,0.47,0.55,0.7c0.28,0.41,0.29,0.89,0.33,1.35
	c0.11,1.45,0.21,2.9,0.3,4.35c0.05,0.81,0.05,1.63,0.06,2.45c0.01,1.33,0.01,2.66-0.02,3.99c-0.03,1.43-1.49,2.14-2.65,1.69
	c-0.36-0.14-0.61-0.44-0.7-0.8c-0.12-0.45-0.21-0.91-0.23-1.38c-0.05-1.78-0.03-3.57-0.1-5.35c-0.07-1.9-0.2-3.8-0.3-5.7
	C124.7,26.59,124.75,26.37,124.78,26.08z"/>
<path class="st7" d="M137.45,25.23c0.66-0.05,1.31,0.65,1.28,1.35c-0.02,0.64-0.58,1.31-1.35,1.29c-0.67-0.02-1.29-0.64-1.29-1.31
	C136.08,25.87,136.67,25.18,137.45,25.23z"/>
<path class="st7" d="M136.74,31.34c-0.69,0.06-1.2-0.61-1.18-1.19c0.03-0.56,0.48-1.11,1.17-1.12c0.64-0.01,1.23,0.59,1.19,1.19
	C137.88,30.82,137.36,31.34,136.74,31.34z"/>
<path class="st7" d="M140.65,28.23c0-0.88,0.75-1.59,1.65-1.59c0.86,0,1.6,0.75,1.6,1.62c0,0.88-0.74,1.63-1.63,1.63
	C141.39,29.9,140.61,29.17,140.65,28.23z"/>
<path class="st8" d="M143.15,25.56c-1.49-1.02-2.78-2.72-3.31-4.4s-0.23-3.24-0.01-4.14c0.22-0.9,0.7-2.15,1.38-2.92
	c0.69-0.77,0.85-1.07,2.15-1.91c1.31-0.84,1.87-0.99,2.63-1.27c0.76-0.28,2.55-0.66,2.98-0.72c0.14-0.02,0.08-0.19-0.12-0.84
	c-0.32-1.04,0.21-1.84,0.52-2.13s0.96-0.68,1.81-0.57c0.85,0.11,1.57,0.27,2.18,0.64c0.7,0.42,1.41,0.96,2.04,1.56
	s1.47,1.91,1.85,2.53s1.01,2.21,1.28,3.6c0.19,1.03,0.4,3.07,0.39,4.17s-0.41,2.77-0.82,3.87c-0.47,1.27-1.78,2.46-2.4,2.96
	s-1.92,1.14-2.84,1.39c-0.91,0.25-2.18,0.36-4.1,0.22C146.96,27.47,144.64,26.58,143.15,25.56z"/>
<path class="st7" d="M155.54,25.31c-0.79,0.56-1.22,0.86-2.14,1.21s-2.54,0.55-4.13,0.48c-1.59-0.06-3.27-0.65-4.14-1.04
	c-0.86-0.39-1.9-1.09-2.79-1.98c-0.89-0.9-1.67-2.08-1.98-3.4c-0.31-1.33-0.24-2.1-0.05-3.13c0.19-1.02,0.59-1.98,1.19-2.78
	c0.6-0.79,0.97-1.12,1.57-1.62s1.9-1.26,2.98-1.6c1.08-0.34,3.05-0.69,3.5-0.78c0.45-0.09,0.44-0.5,0.23-0.91
	c-0.21-0.41-0.54-1.06-0.28-1.56c0.26-0.51,0.4-0.58,0.78-0.8c0.38-0.23,1.06-0.09,1.58,0.01c0.52,0.1,1.45,0.59,1.92,0.95
	c0.48,0.36,0.97,0.82,1.46,1.39c0.49,0.56,0.86,1.02,1.47,2.06s0.82,2,1.11,3.02c0.29,1.02,0.51,3.7,0.37,4.89
	c-0.13,0.91-0.27,1.88-0.57,2.65C157.33,23.15,156.33,24.75,155.54,25.31z"/>
<path class="st9" d="M145.38,25.37c-0.47-0.41-0.24-0.96,0.17-0.94c0.4,0.02,1.54,0.2,2.95,0.13c1.8-0.09,2.54-0.28,3.85-0.77
	c0.81-0.3,2.48-1.2,3.14-2.3c0.66-1.1,0.98-2.26,1.1-2.74c0.12-0.48,0.93-0.71,0.97,0.02c0.05,0.8-0.13,1.63-0.31,2.46
	s-0.66,1.88-1.18,2.57c-0.49,0.64-0.77,0.97-1.77,1.56c-1,0.6-2.62,1.02-3.6,1.07s-1.86-0.04-2.65-0.14
	C147.28,26.19,145.74,25.68,145.38,25.37z"/>
<path class="st10" d="M153.26,10.05c-0.35-0.04-0.93-0.29-1.4-0.53c-0.22-0.11-0.95-0.63-1.02-0.89c-0.05-0.21,0.04-0.45,0.59-0.45
	c0.81,0,1.96,0.64,2.38,1.23C154.01,9.67,154.02,10.14,153.26,10.05z"/>
<path class="st8" d="M144.45,17.95c-0.3-0.12-0.21-0.59-0.15-1.11s-0.32-1.05-0.65-1.25c-0.39-0.24-0.8-0.1-0.91-0.18
	c-0.08-0.06-0.13-0.21,0.15-0.35c0.29-0.15,0.88-0.01,1.21,0.28c0.4,0.35,0.74,0.71,0.74,1.49
	C144.86,17.21,144.75,18.07,144.45,17.95z"/>
<path class="st8" d="M151.29,20.43c-0.29-0.3-0.68-0.43-1-0.49c-0.27-0.05-0.64-0.05-0.89,0.07s-0.34,0.23-0.57,0.3
	s-0.57-0.06-0.46-0.33c0.11-0.27,0.98-0.78,2.14-0.54c0.84,0.17,1.14,0.55,1.33,0.78c0.18,0.22,0.27,0.4,0.32,0.58
	c0.09,0.33-0.24,0.39-0.38,0.21C151.63,20.82,151.53,20.67,151.29,20.43z"/>
</svg>
